# Made in Blockbench 4.12.4
mtllib materials.mtl

o default
o pCube236
v -0.45983375 0.25989875 0.50118875
v 0.45983375 0.25989875 0.50118875
v 0.45983375 1.1795718750000002 0.50118875
v -0.45983375 1.1795718750000002 0.50118875
v -0.45983375 1.2209237499999999 0.45983375
v 0.45983375 1.2209237499999999 0.45983375
v 0.45983375 1.2209237499999999 -0.45983375
v -0.45983375 1.2209237499999999 -0.45983375
v -0.45983375 1.1795718750000002 -0.50118875
v 0.45983375 1.1795718750000002 -0.50118875
v 0.45983375 0.25989875 -0.50118875
v -0.45983375 0.25989875 -0.50118875
v -0.45983375 0.21854687499999997 -0.45983375
v 0.45983375 0.21854687499999997 -0.45983375
v 0.45983375 0.21854687499999997 0.45983375
v -0.45983375 0.21854687499999997 0.45983375
v 0.50118875 0.25989875 0.45983375
v 0.50118875 0.25989875 -0.45983375
v 0.50118875 1.1795718750000002 -0.45983375
v 0.50118875 1.1795718750000002 0.45983375
v -0.50118875 0.25989875 -0.45983375
v -0.50118875 0.25989875 0.45983375
v -0.50118875 1.1795718750000002 0.45983375
v -0.50118875 1.1795718750000002 -0.45983375
v -0.605125 0.11460999999999999 0.605125
v 0.605125 0.11460999999999999 0.605125
v 0.45983375 0.25989875 0.605125
v -0.45983375 0.25989875 0.605125
v 0.605125 1.324860625 0.605125
v 0.45983375 1.1795718750000002 0.605125
v -0.605125 1.324860625 0.605125
v -0.45983375 1.1795718750000002 0.605125
v 0.45983375 1.324860625 0.45983375
v -0.45983375 1.324860625 0.45983375
v 0.605125 1.324860625 -0.605125
v 0.45983375 1.324860625 -0.45983375
v -0.605125 1.324860625 -0.605125
v -0.45983375 1.324860625 -0.45983375
v 0.45983375 1.1795718750000002 -0.605125
v -0.45983375 1.1795718750000002 -0.605125
v 0.605125 0.11460999999999999 -0.605125
v 0.45983375 0.25989875 -0.605125
v -0.605125 0.11460999999999999 -0.605125
v -0.45983375 0.25989875 -0.605125
v 0.45983375 0.11460999999999999 -0.45983375
v -0.45983375 0.11460999999999999 -0.45983375
v 0.45983375 0.11460999999999999 0.45983375
v -0.45983375 0.11460999999999999 0.45983375
v 0.605125 0.25989875 -0.45983375
v 0.605125 0.25989875 0.45983375
v 0.605125 1.1795718750000002 -0.45983375
v 0.605125 1.1795718750000002 0.45983375
v -0.605125 0.25989875 0.45983375
v -0.605125 0.25989875 -0.45983375
v -0.605125 1.1795718750000002 0.45983375
v -0.605125 1.1795718750000002 -0.45983375
vt 0.1640625 0.5546875
vt 0.28125 0.5546875
vt 0.28125 0.671875
vt 0.1640625 0.671875
vt 0.328125 0.71875
vt 0.4453125 0.71875
vt 0.4453125 0.8359375
vt 0.328125 0.8359375
vt 0.40625 0.671875
vt 0.2890625 0.671875
vt 0.2890625 0.5546875
vt 0.40625 0.5546875
vt 0.4140625 0.59375
vt 0.53125 0.59375
vt 0.53125 0.7109375
vt 0.4140625 0.7109375
vt 0.4140625 0.46875
vt 0.53125 0.46875
vt 0.53125 0.5859375
vt 0.4140625 0.5859375
vt 0.1640625 0.4296875
vt 0.28125 0.4296875
vt 0.28125 0.546875
vt 0.1640625 0.546875
vt 0.002484375 0.84871875
vt 0.153765625 0.84871875
vt 0.13560390625 0.8668796875
vt 0.02064609375 0.8668796875
vt 0.153765625 0.84871875
vt 0.153765625 1
vt 0.13560390625 0.98183828125
vt 0.13560390625 0.8668796875
vt 0.153765625 1
vt 0.002484375 1
vt 0.02064609375 0.98183828125
vt 0.13560390625 0.98183828125
vt 0.002484375 1
vt 0.002484375 0.84871875
vt 0.02064609375 0.8668796875
vt 0.02064609375 0.98183828125
vt 0.002484375 0.68465625
vt 0.153765625 0.68465625
vt 0.13560390625 0.70281796875
vt 0.02064609375 0.70281796875
vt 0.153765625 0.68465625
vt 0.153765625 0.8359375
vt 0.13560390625 0.81777578125
vt 0.13560390625 0.70281796875
vt 0.153765625 0.8359375
vt 0.002484375 0.8359375
vt 0.02064609375 0.81777578125
vt 0.13560390625 0.81777578125
vt 0.002484375 0.8359375
vt 0.002484375 0.68465625
vt 0.02064609375 0.70281796875
vt 0.02064609375 0.81777578125
vt 0.317828125 1
vt 0.166546875 1
vt 0.18470859375 0.98183828125
vt 0.29966640625 0.98183828125
vt 0.166546875 1
vt 0.166546875 0.84871875
vt 0.18470859375 0.8668796875
vt 0.18470859375 0.98183828125
vt 0.166546875 0.84871875
vt 0.317828125 0.84871875
vt 0.29966640625 0.8668796875
vt 0.18470859375 0.8668796875
vt 0.317828125 0.84871875
vt 0.317828125 1
vt 0.29966640625 0.98183828125
vt 0.29966640625 0.8668796875
vt 0.166546875 0.6796875
vt 0.317828125 0.6796875
vt 0.29966640625 0.69784921875
vt 0.18470859375 0.69784921875
vt 0.317828125 0.6796875
vt 0.317828125 0.83096875
vt 0.29966640625 0.81280703125
vt 0.29966640625 0.69784921875
vt 0.317828125 0.83096875
vt 0.166546875 0.83096875
vt 0.18470859375 0.81280703125
vt 0.29966640625 0.81280703125
vt 0.166546875 0.83096875
vt 0.166546875 0.6796875
vt 0.18470859375 0.69784921875
vt 0.18470859375 0.81280703125
vt 0.002484375 0.52059375
vt 0.153765625 0.52059375
vt 0.13560390625 0.5387546875
vt 0.02064609375 0.5387546875
vt 0.153765625 0.52059375
vt 0.153765625 0.671875
vt 0.13560390625 0.65371328125
vt 0.13560390625 0.5387546875
vt 0.153765625 0.671875
vt 0.002484375 0.671875
vt 0.02064609375 0.65371328125
vt 0.13560390625 0.65371328125
vt 0.002484375 0.671875
vt 0.002484375 0.52059375
vt 0.02064609375 0.5387546875
vt 0.02064609375 0.65371328125
vt 0.330609375 0.84871875
vt 0.481890625 0.84871875
vt 0.46372890625 0.8668796875
vt 0.34877109375 0.8668796875
vt 0.481890625 0.84871875
vt 0.481890625 1
vt 0.46372890625 0.98183828125
vt 0.46372890625 0.8668796875
vt 0.481890625 1
vt 0.330609375 1
vt 0.34877109375 0.98183828125
vt 0.46372890625 0.98183828125
vt 0.330609375 1
vt 0.330609375 0.84871875
vt 0.34877109375 0.8668796875
vt 0.34877109375 0.98183828125
vt 0.453125 0.8203125
vt 0.5703125 0.8203125
vt 0.5703125 0.8359375
vt 0.453125 0.8359375
vt 0.3046875 0.4296875
vt 0.3046875 0.546875
vt 0.2890625 0.546875
vt 0.2890625 0.4296875
vt 0.5703125 0.8125
vt 0.453125 0.8125
vt 0.453125 0.796875
vt 0.5703125 0.796875
vt 0.3125 0.546875
vt 0.3125 0.4296875
vt 0.328125 0.4296875
vt 0.328125 0.546875
vt 0.5703125 0.7890625
vt 0.453125 0.7890625
vt 0.453125 0.7734375
vt 0.5703125 0.7734375
vt 0.5703125 0.765625
vt 0.453125 0.765625
vt 0.453125 0.75
vt 0.5703125 0.75
vt 0.5703125 0.7421875
vt 0.453125 0.7421875
vt 0.453125 0.7265625
vt 0.5703125 0.7265625
vt 0.1171875 0.5078125
vt 0 0.5078125
vt 0 0.4921875
vt 0.1171875 0.4921875
vt 0.4921875 0.984375
vt 0.609375 0.984375
vt 0.609375 1
vt 0.4921875 1
vt 0.3359375 0.546875
vt 0.3359375 0.4296875
vt 0.3515625 0.4296875
vt 0.3515625 0.546875
vt 0.609375 0.9765625
vt 0.4921875 0.9765625
vt 0.4921875 0.9609375
vt 0.609375 0.9609375
vt 0.375 0.4296875
vt 0.375 0.546875
vt 0.359375 0.546875
vt 0.359375 0.4296875
vt 0.4921875 0.9375
vt 0.609375 0.9375
vt 0.609375 0.953125
vt 0.4921875 0.953125
vt 0.4921875 0.9140625
vt 0.609375 0.9140625
vt 0.609375 0.9296875
vt 0.4921875 0.9296875
vt 0.4921875 0.890625
vt 0.609375 0.890625
vt 0.609375 0.90625
vt 0.4921875 0.90625
vt 0.4921875 0.8671875
vt 0.609375 0.8671875
vt 0.609375 0.8828125
vt 0.4921875 0.8828125
vt 0.3984375 0.4296875
vt 0.3984375 0.546875
vt 0.3828125 0.546875
vt 0.3828125 0.4296875
vt 0.140625 0.390625
vt 0.140625 0.5078125
vt 0.125 0.5078125
vt 0.125 0.390625
vt 0.015625 0.3671875
vt 0.015625 0.484375
vt 0 0.484375
vt 0 0.3671875
vt 0.0234375 0.484375
vt 0.0234375 0.3671875
vt 0.0390625 0.3671875
vt 0.0390625 0.484375
vt 0.046875 0.484375
vt 0.046875 0.3671875
vt 0.0625 0.3671875
vt 0.0625 0.484375
vt 0.0859375 0.3671875
vt 0.0859375 0.484375
vt 0.0703125 0.484375
vt 0.0703125 0.3671875
vt 0.09375 0.484375
vt 0.09375 0.3671875
vt 0.109375 0.3671875
vt 0.109375 0.484375
vt 0.5390625 0.71875
vt 0.5390625 0.6015625
vt 0.5546875 0.6015625
vt 0.5546875 0.71875
vn 0 0 1
vn 0 1 0
vn 0 0 -1
vn 0 -1 0
vn 1 0 0
vn -1 0 0
vn 0 0 1
vn 0 0 1
vn 0 0 1
vn 0 0 1
vn 0 1 0
vn 0 1 0
vn 0 1 0
vn 0 1 0
vn 0 0 -1
vn 0 0 -1
vn 0 0 -1
vn 0 0 -1
vn 0 -1 0
vn 0 -1 0
vn 0 -1 0
vn 0 -1 0
vn 1 0 0
vn 1 0 0
vn 1 0 0
vn 1 0 0
vn -1 0 0
vn -1 0 0
vn -1 0 0
vn -1 0 0
vn 0 1 0
vn -1 0 0
vn 0 -1 0
vn 1 0 0
vn 0 0 -1
vn -1 0 0
vn 0 0 1
vn 1 0 0
vn 0 -1 0
vn -1 0 0
vn 0 1 0
vn 1 0 0
vn 0 0 1
vn -1 0 0
vn 0 0 -1
vn 1 0 0
vn 0 1 0
vn 0 0 1
vn 0 -1 0
vn 0 0 -1
vn 0 1 0
vn 0 0 -1
vn 0 -1 0
vn 0 0 1
usemtl m_9550e92c-118e-5dc5-41c1-1427d162f856
f 1/1/1 2/2/1 3/3/1 4/4/1
f 5/5/2 6/6/2 7/7/2 8/8/2
f 9/9/3 10/10/3 11/11/3 12/12/3
f 13/13/4 14/14/4 15/15/4 16/16/4
f 17/17/5 18/18/5 19/19/5 20/20/5
f 21/21/6 22/22/6 23/23/6 24/24/6
f 25/25/7 26/26/7 27/27/7 28/28/7
f 26/29/8 29/30/8 30/31/8 27/32/8
f 29/33/9 31/34/9 32/35/9 30/36/9
f 31/37/10 25/38/10 28/39/10 32/40/10
f 31/41/11 29/42/11 33/43/11 34/44/11
f 29/45/12 35/46/12 36/47/12 33/48/12
f 35/49/13 37/50/13 38/51/13 36/52/13
f 37/53/14 31/54/14 34/55/14 38/56/14
f 37/57/15 35/58/15 39/59/15 40/60/15
f 35/61/16 41/62/16 42/63/16 39/64/16
f 41/65/17 43/66/17 44/67/17 42/68/17
f 43/69/18 37/70/18 40/71/18 44/72/18
f 43/73/19 41/74/19 45/75/19 46/76/19
f 41/77/20 26/78/20 47/79/20 45/80/20
f 26/81/21 25/82/21 48/83/21 47/84/21
f 25/85/22 43/86/22 46/87/22 48/88/22
f 26/89/23 41/90/23 49/91/23 50/92/23
f 41/93/24 35/94/24 51/95/24 49/96/24
f 35/97/25 29/98/25 52/99/25 51/100/25
f 29/101/26 26/102/26 50/103/26 52/104/26
f 43/105/27 25/106/27 53/107/27 54/108/27
f 25/109/28 31/110/28 55/111/28 53/112/28
f 31/113/29 37/114/29 56/115/29 55/116/29
f 37/117/30 43/118/30 54/119/30 56/120/30
f 28/121/31 27/122/31 2/123/31 1/124/31
f 27/125/32 30/126/32 3/127/32 2/128/32
f 30/129/33 32/130/33 4/131/33 3/132/33
f 32/133/34 28/134/34 1/135/34 4/136/34
f 34/137/35 33/138/35 6/139/35 5/140/35
f 33/141/36 36/142/36 7/143/36 6/144/36
f 36/145/37 38/146/37 8/147/37 7/148/37
f 38/149/38 34/150/38 5/151/38 8/152/38
f 40/153/39 39/154/39 10/155/39 9/156/39
f 39/157/40 42/158/40 11/159/40 10/160/40
f 42/161/41 44/162/41 12/163/41 11/164/41
f 44/165/42 40/166/42 9/167/42 12/168/42
f 46/169/43 45/170/43 14/171/43 13/172/43
f 45/173/44 47/174/44 15/175/44 14/176/44
f 47/177/45 48/178/45 16/179/45 15/180/45
f 48/181/46 46/182/46 13/183/46 16/184/46
f 50/185/47 49/186/47 18/187/47 17/188/47
f 49/189/48 51/190/48 19/191/48 18/192/48
f 51/193/49 52/194/49 20/195/49 19/196/49
f 52/197/50 50/198/50 17/199/50 20/200/50
f 54/201/51 53/202/51 22/203/51 21/204/51
f 53/205/52 55/206/52 23/207/52 22/208/52
f 55/209/53 56/210/53 24/211/53 23/212/53
f 56/213/54 54/214/54 21/215/54 24/216/54